<svg width="28" height="28" viewBox="0 0 28 28" fill="none" xmlns="http://www.w3.org/2000/svg">
  <path fill-rule="evenodd" clip-rule="evenodd" d="M7.28326 6.32366C7.01829 6.0587 6.58869 6.0587 6.32373 6.32366C6.05876 6.58863 6.05876 7.01823 6.32373 7.2832L13.0405 13.9999L6.32375 20.7167C6.05878 20.9816 6.05878 21.4112 6.32375 21.6762C6.58871 21.9412 7.01831 21.9412 7.28328 21.6762L14 14.9595L20.7167 21.6762C20.9817 21.9412 21.4113 21.9412 21.6763 21.6762C21.9412 21.4112 21.9412 20.9816 21.6763 20.7167L14.9595 13.9999L21.6763 7.28321C21.9412 7.01825 21.9412 6.58865 21.6763 6.32368C21.4113 6.05871 20.9817 6.05871 20.7167 6.32368L14 13.0404L7.28326 6.32366Z" fill="#F5F5F5"/>
  <path fill-rule="evenodd" clip-rule="evenodd" d="M7.12858 6.47834C6.94904 6.2988 6.65795 6.2988 6.47841 6.47834C6.29886 6.65788 6.29886 6.94898 6.47841 7.12852L13.3498 13.9999L6.47842 20.8714C6.29888 21.0509 6.29888 21.342 6.47843 21.5215C6.65797 21.7011 6.94906 21.7011 7.1286 21.5215L14 14.6501L20.8714 21.5215C21.0509 21.7011 21.342 21.7011 21.5216 21.5215C21.7011 21.342 21.7011 21.0509 21.5216 20.8713L14.6502 13.9999L21.5216 7.12854C21.7011 6.94899 21.7011 6.6579 21.5216 6.47836C21.3421 6.29882 21.051 6.29882 20.8714 6.47836L14 13.3498L7.12858 6.47834ZM6.16905 6.16898C6.51944 5.81859 7.08754 5.81859 7.43794 6.16898L14 12.7311L20.5621 6.169C20.9125 5.81861 21.4806 5.81861 21.831 6.169C22.1814 6.5194 22.1814 7.0875 21.831 7.43789L15.2689 13.9999L21.8309 20.562C22.1813 20.9124 22.1813 21.4805 21.8309 21.8309C21.4805 22.1813 20.9124 22.1813 20.562 21.8309L14 15.2688L7.43796 21.8309C7.08756 22.1813 6.51946 22.1813 6.16907 21.8309C5.81867 21.4805 5.81867 20.9124 6.16907 20.562L12.7311 13.9999L6.16905 7.43788C5.81865 7.08748 5.81865 6.51938 6.16905 6.16898Z" fill="#F5F5F5"/>
</svg>