<svg width="866" height="1860" viewBox="0 0 866 1860" fill="none" xmlns="http://www.w3.org/2000/svg">
  <path d="M886.645 246.888L915.61 184.524L809.5 134.073L780.536 196.437C655.339 462.644 654.891 771.878 783.042 1038.45L889.298 988.309C776.004 753.425 776.397 481.448 886.645 246.888Z" fill="#490111"/>
  <path d="M606.886 492.395L612.574 423.478L496.161 413.063L490.473 481.981C465.83 776.276 574.387 1066.11 785.523 1272.26L867.61 1188.55C680.656 1006.65 585.087 752.232 606.886 492.395Z" fill="#5B011C"/>
  <path d="M438.816 797.628L422.148 730.541L308.473 758.319L325.142 825.406C397.378 1112.39 594.495 1351.12 861.633 1477.25L912.083 1371.14C675.66 1260.89 502.719 1050.14 438.816 797.628Z" fill="#72021A"/>
  <path d="M379.57 1165.49L340.534 1107.69L244.501 1173.68L283.537 1231.48C450.841 1475.76 717.935 1631.7 1013.16 1657.27L1022.65 1539.93C763.738 1519.06 527.355 1380.87 379.57 1165.49Z" fill="#86031D"/>
  <path d="M467.714 1273.67C670.019 1484.69 911.42 1530.26 1022.5 1540.1L1022.06 1542.05C918.423 1528.77 870.069 1516.81 794.948 1489.98C745.595 1472.35 682.903 1443.33 619.579 1401.97C566.675 1367.42 513.333 1323.56 466.939 1277.08L467.714 1273.67Z" fill="url(#paint0_linear_3266_3246)"/>
  <path d="M484.007 929.407C600.53 1197.51 811.125 1324.01 911.891 1371.77L910.799 1373.45C818.208 1325.04 777.01 1297.04 715.864 1245.81C675.693 1212.16 626.963 1163.19 581.923 1102.43C544.295 1051.67 509.485 992.022 482.096 932.34L484.007 929.407Z" fill="url(#paint1_linear_3266_3246)"/>
  <path d="M609.22 628.583C630.063 920.169 786.677 1109.44 865.855 1187.96L864.268 1189.18C793.014 1112.77 763.456 1072.68 722.801 1004.04C696.092 958.954 666.395 896.581 644.098 824.307C625.47 763.927 612.451 696.105 606.444 630.714L609.22 628.583Z" fill="url(#paint2_linear_3266_3246)"/>
  <path d="M886.481 988.85L889.362 988.466C841.858 888.213 759.563 658.824 837.06 379.5L865.246 297.201C865.696 295.909 865.961 295.138 866 295L864.5 295C864.214 296.096 841.91 357.5 835.5 379.5C829.09 401.5 808.5 487.5 804.51 571.066C800.519 654.632 807.609 715.369 817.391 766.855C832.279 845.223 845.463 892.758 886.481 988.85Z" fill="url(#paint3_linear_3266_3246)"/>
  <defs>
  <linearGradient id="paint0_linear_3266_3246" x1="1103.95" y1="1553.97" x2="1089.32" y2="1234.14" gradientUnits="userSpaceOnUse">
  <stop stop-color="#86031D"/>
  <stop offset="0.48" stop-color="#F30434"/>
  <stop offset="1" stop-color="#86031D"/>
  </linearGradient>
  <linearGradient id="paint1_linear_3266_3246" x1="922.885" y1="1382.64" x2="999.568" y2="1147.09" gradientUnits="userSpaceOnUse">
  <stop stop-color="#86031D"/>
  <stop offset="0.48" stop-color="#F30434"/>
  <stop offset="1" stop-color="#86031D"/>
  </linearGradient>
  <linearGradient id="paint2_linear_3266_3246" x1="869.134" y1="1181.24" x2="960.494" y2="1028.82" gradientUnits="userSpaceOnUse">
  <stop stop-color="#86031D"/>
  <stop offset="0.550391" stop-color="#BA1637"/>
  <stop offset="1" stop-color="#86031D"/>
  </linearGradient>
  <linearGradient id="paint3_linear_3266_3246" x1="936.267" y1="1194.94" x2="1139.43" y2="1032.91" gradientUnits="userSpaceOnUse">
  <stop offset="0.149856" stop-color="#5A0618"/>
  <stop offset="0.572408" stop-color="#95112C"/>
  </linearGradient>
  </defs>
  </svg>
  