<svg width="164" height="164" viewBox="0 0 164 164" fill="none" xmlns="http://www.w3.org/2000/svg">
  <path fill-rule="evenodd" clip-rule="evenodd"
    d="M8.94545 4.47273C8.94545 6.94295 6.94295 8.94545 4.47273 8.94545C2.00251 8.94545 0 6.94295 0 4.47273C0 2.00251 2.00251 0 4.47273 0C6.94295 0 8.94545 2.00251 8.94545 4.47273ZM47.7091 4.47273C47.7091 6.94295 45.7066 8.94545 43.2364 8.94545C40.7661 8.94545 38.7636 6.94295 38.7636 4.47273C38.7636 2.00251 40.7661 0 43.2364 0C45.7066 0 47.7091 2.00251 47.7091 4.47273ZM82 8.94545C84.4702 8.94545 86.4727 6.94295 86.4727 4.47273C86.4727 2.00251 84.4702 0 82 0C79.5298 0 77.5273 2.00251 77.5273 4.47273C77.5273 6.94295 79.5298 8.94545 82 8.94545ZM125.236 4.47273C125.236 6.94295 123.234 8.94545 120.764 8.94545C118.293 8.94545 116.291 6.94295 116.291 4.47273C116.291 2.00251 118.293 0 120.764 0C123.234 0 125.236 2.00251 125.236 4.47273ZM159.527 8.94545C161.997 8.94545 164 6.94295 164 4.47273C164 2.00251 161.997 0 159.527 0C157.057 0 155.055 2.00251 155.055 4.47273C155.055 6.94295 157.057 8.94545 159.527 8.94545ZM8.94545 43.2364C8.94545 45.7066 6.94295 47.7091 4.47273 47.7091C2.00251 47.7091 0 45.7066 0 43.2364C0 40.7661 2.00251 38.7636 4.47273 38.7636C6.94295 38.7636 8.94545 40.7661 8.94545 43.2364ZM43.2364 47.7091C45.7066 47.7091 47.7091 45.7066 47.7091 43.2364C47.7091 40.7661 45.7066 38.7636 43.2364 38.7636C40.7661 38.7636 38.7636 40.7661 38.7636 43.2364C38.7636 45.7066 40.7661 47.7091 43.2364 47.7091ZM86.4727 43.2364C86.4727 45.7066 84.4702 47.7091 82 47.7091C79.5298 47.7091 77.5273 45.7066 77.5273 43.2364C77.5273 40.7661 79.5298 38.7636 82 38.7636C84.4702 38.7636 86.4727 40.7661 86.4727 43.2364ZM120.764 47.7091C123.234 47.7091 125.236 45.7066 125.236 43.2364C125.236 40.7661 123.234 38.7636 120.764 38.7636C118.293 38.7636 116.291 40.7661 116.291 43.2364C116.291 45.7066 118.293 47.7091 120.764 47.7091ZM164 43.2364C164 45.7066 161.997 47.7091 159.527 47.7091C157.057 47.7091 155.055 45.7066 155.055 43.2364C155.055 40.7661 157.057 38.7636 159.527 38.7636C161.997 38.7636 164 40.7661 164 43.2364ZM4.47273 86.4727C6.94295 86.4727 8.94545 84.4702 8.94545 82C8.94545 79.5298 6.94295 77.5273 4.47273 77.5273C2.00251 77.5273 0 79.5298 0 82C0 84.4702 2.00251 86.4727 4.47273 86.4727ZM47.7091 82C47.7091 84.4702 45.7066 86.4727 43.2364 86.4727C40.7661 86.4727 38.7636 84.4702 38.7636 82C38.7636 79.5298 40.7661 77.5273 43.2364 77.5273C45.7066 77.5273 47.7091 79.5298 47.7091 82ZM82 86.4727C84.4702 86.4727 86.4727 84.4702 86.4727 82C86.4727 79.5298 84.4702 77.5273 82 77.5273C79.5298 77.5273 77.5273 79.5298 77.5273 82C77.5273 84.4702 79.5298 86.4727 82 86.4727ZM125.236 82C125.236 84.4702 123.234 86.4727 120.764 86.4727C118.293 86.4727 116.291 84.4702 116.291 82C116.291 79.5298 118.293 77.5273 120.764 77.5273C123.234 77.5273 125.236 79.5298 125.236 82ZM159.527 86.4727C161.997 86.4727 164 84.4702 164 82C164 79.5298 161.997 77.5273 159.527 77.5273C157.057 77.5273 155.055 79.5298 155.055 82C155.055 84.4702 157.057 86.4727 159.527 86.4727ZM8.94545 120.764C8.94545 123.234 6.94295 125.236 4.47273 125.236C2.00251 125.236 0 123.234 0 120.764C0 118.293 2.00251 116.291 4.47273 116.291C6.94295 116.291 8.94545 118.293 8.94545 120.764ZM43.2364 125.236C45.7066 125.236 47.7091 123.234 47.7091 120.764C47.7091 118.293 45.7066 116.291 43.2364 116.291C40.7661 116.291 38.7636 118.293 38.7636 120.764C38.7636 123.234 40.7661 125.236 43.2364 125.236ZM86.4727 120.764C86.4727 123.234 84.4702 125.236 82 125.236C79.5298 125.236 77.5273 123.234 77.5273 120.764C77.5273 118.293 79.5298 116.291 82 116.291C84.4702 116.291 86.4727 118.293 86.4727 120.764ZM120.764 125.236C123.234 125.236 125.236 123.234 125.236 120.764C125.236 118.293 123.234 116.291 120.764 116.291C118.293 116.291 116.291 118.293 116.291 120.764C116.291 123.234 118.293 125.236 120.764 125.236ZM164 120.764C164 123.234 161.997 125.236 159.527 125.236C157.057 125.236 155.055 123.234 155.055 120.764C155.055 118.293 157.057 116.291 159.527 116.291C161.997 116.291 164 118.293 164 120.764ZM4.47273 164C6.94295 164 8.94545 161.997 8.94545 159.527C8.94545 157.057 6.94295 155.055 4.47273 155.055C2.00251 155.055 0 157.057 0 159.527C0 161.997 2.00251 164 4.47273 164ZM47.7091 159.527C47.7091 161.997 45.7066 164 43.2364 164C40.7661 164 38.7636 161.997 38.7636 159.527C38.7636 157.057 40.7661 155.055 43.2364 155.055C45.7066 155.055 47.7091 157.057 47.7091 159.527ZM82 164C84.4702 164 86.4727 161.997 86.4727 159.527C86.4727 157.057 84.4702 155.055 82 155.055C79.5298 155.055 77.5273 157.057 77.5273 159.527C77.5273 161.997 79.5298 164 82 164ZM125.236 159.527C125.236 161.997 123.234 164 120.764 164C118.293 164 116.291 161.997 116.291 159.527C116.291 157.057 118.293 155.055 120.764 155.055C123.234 155.055 125.236 157.057 125.236 159.527ZM159.527 164C161.997 164 164 161.997 164 159.527C164 157.057 161.997 155.055 159.527 155.055C157.057 155.055 155.055 157.057 155.055 159.527C155.055 161.997 157.057 164 159.527 164Z"
    fill="#CFAE7C"/>
</svg>
  