<svg width="1132" height="2215" viewBox="0 0 1132 2215" fill="none" xmlns="http://www.w3.org/2000/svg">
  <path d="M453.518 1933.08L455.763 2014.47L594.87 2011.89L592.624 1930.5C584.692 1582.23 421.82 1254.27 145.191 1039.44L59.067 1148.71C303.211 1337.8 446.459 1626.25 453.518 1933.08Z" fill="#490111"/>
  <path d="M620.328 1525.11L650.703 1601.16L779.581 1550.7L749.206 1474.66C619.868 1149.74 351.719 899.914 19.0588 792.96L-23.7202 925.037C270.501 1019.06 506.177 1238.22 620.328 1525.11Z" fill="#5B011C"/>
  <path d="M637.219 1112.84L690.322 1175.14L796.123 1085.65L743.02 1023.35C514.87 757.361 179.857 608.473 -169.885 615.909L-167.303 755.015C141.5 746.975 436.111 878.982 637.219 1112.84Z" fill="#72021A"/>
  <path d="M505.692 691.678L577.598 732.32L644.516 611.653L572.61 571.01C266.265 400.497 -99.1751 376.321 -425.57 505.162L-373.636 634.537C-88.22 519.89 235.3 541.485 505.692 691.678Z" fill="#86031D"/>
  <path d="M355.131 623.588C29.258 506.808 -250.654 586.028 -373.572 634.281L-374.133 631.98C-257.291 591.302 -199.725 578.441 -105.937 567.196C-44.3198 559.809 37.4497 557.445 126.409 567.831C200.73 576.507 280.432 594.816 354.15 619.561L355.131 623.588Z" fill="url(#paint0_linear_3266_3288)"/>
  <path d="M519.714 997.05C254.602 774.46 -35.4085 751.64 -167.433 754.248L-167.16 751.895C-43.4628 754.284 14.9895 762.195 106.853 784.19C167.205 798.64 244.715 824.794 324.546 865.399C391.239 899.323 459.638 944.148 520.19 992.933L519.714 997.05Z" fill="url(#paint1_linear_3266_3288)"/>
  <path d="M545.915 1382.01C369.801 1083.99 103.841 966.128 -21.5522 924.73L-20.5139 922.601C95.3655 965.946 147.87 992.825 227.211 1044.09C279.335 1077.77 343.756 1128.18 405.563 1193C457.2 1247.15 506.824 1312.16 547.732 1378.28L545.915 1382.01Z" fill="url(#paint2_linear_3266_3288)"/>
  <path d="M58.9142 1148.58L61.765 1146.65C155.994 1226.82 195.077 1270.24 252.252 1345.43C289.815 1394.83 333.247 1464.15 369.325 1546.13C399.041 1613.65 422.509 1690.42 438.499 1765.5C441.88 1779.02 447.334 1806.99 451 1835.5C459.26 1899.74 456.5 1912 456.5 1912L452.998 1912C452.683 1910.33 451.87 1868.36 447.999 1835.5C443.249 1795.19 435.273 1762.53 434.867 1760.5C368.193 1427.07 161.617 1229.27 58.9142 1148.58Z" fill="url(#paint3_linear_3266_3288)"/>
  <defs>
  <linearGradient id="paint0_linear_3266_3288" x1="-467.223" y1="662.6" x2="-282.77" y2="993.837" gradientUnits="userSpaceOnUse">
  <stop stop-color="#86031D"/>
  <stop offset="0.48" stop-color="#F30434"/>
  <stop offset="1" stop-color="#86031D"/>
  </linearGradient>
  <linearGradient id="paint1_linear_3266_3288" x1="-184.824" y1="748.538" x2="-141.67" y2="1038.68" gradientUnits="userSpaceOnUse">
  <stop stop-color="#86031D"/>
  <stop offset="0.48" stop-color="#F30434"/>
  <stop offset="1" stop-color="#86031D"/>
  </linearGradient>
  <linearGradient id="paint2_linear_3266_3288" x1="-21.4765" y1="933.588" x2="-37.7859" y2="1143.39" gradientUnits="userSpaceOnUse">
  <stop stop-color="#86031D"/>
  <stop offset="0.550391" stop-color="#BA1637"/>
  <stop offset="1" stop-color="#86031D"/>
  </linearGradient>
  <linearGradient id="paint3_linear_3266_3288" x1="-99.8616" y1="954.529" x2="-229.585" y2="1233.57" gradientUnits="userSpaceOnUse">
  <stop offset="0.149856" stop-color="#5A0618"/>
  <stop offset="0.572408" stop-color="#95112C"/>
  </linearGradient>
  </defs>
  </svg>
  