<svg width="20" height="21" viewBox="0 0 20 21" fill="none" xmlns="http://www.w3.org/2000/svg">
  <path fill-rule="evenodd" clip-rule="evenodd" d="M16.6027 9.92162C16.9222 10.2411 16.9222 10.7592 16.6027 11.0787L10.3963 17.285C10.0767 17.6046 9.55869 17.6046 9.23919 17.285L9.14842 17.1942C8.82893 16.8747 8.82895 16.3567 9.14845 16.0372L13.8701 11.3155L3.26971 11.3155C2.81935 11.3155 2.45427 10.9504 2.4543 10.5001C2.45432 10.0497 2.81939 9.68468 3.26971 9.68468L13.8702 9.68468L9.14848 4.96301C8.82897 4.6435 8.82896 4.12547 9.14847 3.80596L9.23919 3.71523C9.5587 3.39571 10.0767 3.3957 10.3963 3.71522L16.6027 9.92162Z" fill="#CFAE7C"/>
</svg>
