<svg width="680" height="1671" viewBox="0 0 680 1671" fill="none" xmlns="http://www.w3.org/2000/svg">
  <path
    d="M239.699 126.342L254.139 59.1141L139.493 33.4048L125.053 100.633C61.8933 387.951 129.913 689.611 313.896 921.202L406.415 848.781C243.935 644.805 184.111 379.489 239.699 126.342Z"
    fill="#490111" />
  <path
    d="M21.2276 427.689L11.5183 359.222L-104.312 374.837L-94.603 443.304C-53.4858 735.753 116.539 994.362 368.073 1148.66L429.592 1048.85C207.009 912.855 57.4902 685.905 21.2276 427.689Z"
    fill="#5B011C" />
  <path
    d="M-75.1021 762.555L-106.208 700.822L-210.913 753.076L-179.807 814.809C-45.8328 1078.68 199.242 1267.85 487.674 1331.72L513.383 1217.07C258.419 1161.89 43.1141 994.653 -75.1021 762.555Z"
    fill="#72021A" />
  <path
    d="M-51.4429 1134.41L-102.307 1086.68L-181.348 1172.29L-130.484 1220.02C86.7444 1421.2 381.732 1514.14 675.295 1473.73L658.566 1357.19C401.464 1394.16 140.354 1311.72 -51.4429 1134.41Z"
    fill="#86031D" />
  <path
    d="M58.4622 1220.39C302.462 1381.39 547.962 1372.39 658.462 1357.39L658.462 1359.39C554.462 1369.39 504.66 1368.43 425.462 1358.89C373.431 1352.62 305.871 1338.21 234.962 1311.89C175.722 1289.9 113.993 1258.94 58.4622 1223.89L58.4622 1220.39Z"
    fill="url(#paint0_linear_71_423)" />
  <path
    d="M-1.85916 881.061C171.123 1116.72 404.495 1193.45 513.335 1217.73L512.642 1219.6C411.632 1192.9 365.258 1174.71 294.289 1138.29C247.664 1114.36 189.303 1077.4 131.93 1028.12C83.9977 986.941 36.8476 936.481 -3.07352 884.343L-1.85916 881.061Z"
    fill="url(#paint1_linear_71_423)" />
  <path
    d="M53.6526 559.982C138.528 839.719 333.155 989.624 427.752 1048.67L426.474 1050.21C340.072 991.468 302.372 958.912 247.533 900.983C211.504 862.924 168.737 808.673 130.993 743.129C99.461 688.37 71.7509 625.113 51.4168 562.674L53.6526 559.982Z"
    fill="url(#paint2_linear_71_423)" />
  <path
    d="M220.925 262.126C205.598 554.054 337.638 761.217 406.512 848.919L403.787 849.932C342.515 765.305 319.135 721.867 287.268 648.739C266.332 600.696 244.565 535.133 231.364 460.659C220.336 398.441 215.792 329.53 217.907 263.898L220.925 262.126Z"
    fill="url(#paint3_linear_71_423)" />
  <defs>
    <linearGradient id="paint0_linear_71_423" x1="740.962" y1="1352.89" x2="655.891" y2="1044.23"
      gradientUnits="userSpaceOnUse">
      <stop stop-color="#86031D" />
      <stop offset="0.48" stop-color="#F30434" />
      <stop offset="1" stop-color="#86031D" />
    </linearGradient>
    <linearGradient id="paint1_linear_71_423" x1="526.462" y1="1225.89" x2="549.098" y2="979.208"
      gradientUnits="userSpaceOnUse">
      <stop stop-color="#86031D" />
      <stop offset="0.48" stop-color="#F30434" />
      <stop offset="1" stop-color="#86031D" />
    </linearGradient>
    <linearGradient id="paint2_linear_71_423" x1="429.462" y1="1041.39" x2="484.812" y2="872.523"
      gradientUnits="userSpaceOnUse">
      <stop stop-color="#86031D" />
      <stop offset="0.550391" stop-color="#BA1637" />
      <stop offset="1" stop-color="#86031D" />
    </linearGradient>
    <linearGradient id="paint3_linear_71_423" x1="497.962" y1="1039.89" x2="660.213" y2="836.904"
      gradientUnits="userSpaceOnUse">
      <stop offset="0.149856" stop-color="#5A0618" />
      <stop offset="0.572408" stop-color="#95112C" />
    </linearGradient>
  </defs>
</svg>
  